# xmcd
#
# Track frame offsets:
#	150
#	20407
#	34584
#	51200
#	66369
#	84353
#	100293
#	117748
#	134422
#
# Disc length: 2035 seconds
#
# Revision: 1
# Processed by: cddbd v1.5.2PL0 Copyright (c) Steve Scherf et al.
# Submitted via: audiograbber 1.83.01
#
DISCID=7a07f109
DTITLE=Fast Trax - FTX C406
DYEAR=1900
DGENRE=
TTITLE0=Paisley, Brad and Alabama - Old Alabama
TTITLE1=Thompson Square - Are You gonna Kiss Me Or Not
TTITLE2=Lady Antebellum - Just A Kiss
TTITLE3=Zac Brown Band - Knee Deep
TTITLE4=Bryan, Luke - Country Girl Shake It For Me
TTITLE5=Shelton, Blake - Honey Bee
TTITLE6=Aldean, Jason - Dirt Road Anthem
TTITLE7=Young, Chris - Tomorrow
TTITLE8=McBride, Martina - Teenage Daughters
EXTD=
EXTT0=
EXTT1=
EXTT2=
EXTT3=
EXTT4=
EXTT5=
EXTT6=
EXTT7=
EXTT8=
PLAYORDER=
